<?xml version="1.0" standalone="no"?>
<!DOCTYPE svg PUBLIC "-//W3C//DTD SVG 20010904//EN"
 "http://www.w3.org/TR/2001/REC-SVG-20010904/DTD/svg10.dtd">
<svg version="1.0" xmlns="http://www.w3.org/2000/svg"
 width="512.000000pt" height="512.000000pt" viewBox="0 0 512.000000 512.000000"
 preserveAspectRatio="xMidYMid meet">
<metadata>
Created by potrace 1.14, written by Peter Selinger 2001-2017
</metadata>
<g transform="translate(0.000000,512.000000) scale(0.100000,-0.100000)"
fill="#000000" stroke="none">
<path d="M2409 5116 c-2 -2 -29 -7 -60 -10 -31 -4 -67 -9 -80 -11 -13 -3 -35
-7 -49 -10 -113 -21 -292 -85 -406 -145 -419 -219 -710 -571 -838 -1014 -14
-48 -28 -98 -30 -110 -2 -11 -7 -41 -11 -66 -4 -25 -9 -54 -12 -65 -12 -52
-10 -346 3 -435 45 -301 145 -541 330 -788 147 -198 215 -322 274 -499 67
-206 79 -305 80 -703 1 -271 2 -289 24 -351 41 -117 126 -215 227 -260 l49
-23 0 -115 c0 -182 33 -273 134 -376 60 -60 118 -95 205 -121 63 -19 546 -19
618 0 87 23 145 57 208 120 101 103 135 196 135 376 l0 115 50 24 c95 45 178
137 220 241 24 59 25 81 34 545 3 121 7 231 9 245 3 14 8 43 11 64 13 79 49
204 87 301 50 130 121 253 223 390 198 265 299 493 345 784 20 123 25 350 10
441 -5 30 -11 73 -14 95 -29 194 -130 445 -258 635 -237 353 -631 619 -1032
696 -11 2 -31 6 -45 9 -14 3 -43 7 -65 11 -45 6 -371 15 -376 10z m361 -311
c284 -51 526 -174 725 -366 201 -195 332 -436 391 -720 12 -57 18 -133 18
-234 1 -192 -7 -252 -54 -407 -54 -175 -111 -282 -236 -449 -105 -139 -159
-226 -219 -352 -88 -183 -152 -405 -171 -587 -3 -36 -8 -67 -11 -70 -6 -6
-1292 -7 -1303 0 -4 3 -11 39 -15 80 -4 41 -9 78 -11 81 -2 4 -6 24 -9 45 -16
109 -77 297 -141 432 -19 41 -34 75 -34 77 0 12 -128 206 -193 293 -99 133
-148 217 -196 333 -158 387 -125 842 86 1193 128 212 329 402 550 519 88 47
271 107 383 126 105 18 355 22 440 6z m433 -3484 c4 0 7 -67 7 -148 0 -130 -3
-152 -21 -191 -16 -33 -32 -49 -63 -63 -38 -17 -75 -19 -566 -19 -495 0 -527
2 -567 19 -70 32 -83 71 -83 249 0 82 2 151 4 153 4 3 1267 4 1289 0z m-293
-808 c0 -109 -23 -164 -81 -193 -35 -18 -59 -20 -270 -20 -217 0 -234 1 -269
21 -60 34 -80 80 -80 188 l0 91 350 0 350 0 0 -87z"/>
<path d="M2448 4305 c-82 -22 -141 -57 -203 -119 -65 -66 -106 -140 -124 -224
-25 -121 -4 -185 76 -226 43 -21 85 -20 133 4 47 24 71 65 81 137 15 111 109
168 206 128 46 -19 66 -40 81 -84 26 -75 1 -139 -75 -188 -72 -47 -140 -124
-176 -200 -27 -60 -31 -80 -35 -180 -4 -106 -3 -114 21 -155 31 -53 65 -73
127 -73 98 0 150 63 150 184 0 97 16 131 84 176 132 87 209 221 215 371 7 193
-119 374 -305 440 -61 21 -194 26 -256 9z"/>
<path d="M2510 2812 c-61 -30 -100 -85 -100 -142 0 -34 23 -86 49 -111 21 -20
76 -39 110 -39 36 1 85 29 113 65 18 23 23 42 23 85 0 58 -15 88 -62 124 -25
18 -109 30 -133 18z"/>
<path d="M225 4422 c-65 -42 -92 -102 -73 -168 18 -68 50 -89 228 -154 91 -33
180 -60 198 -60 41 0 103 31 121 62 20 32 31 87 24 120 -3 15 -19 43 -37 63
-26 29 -57 45 -186 92 -178 64 -231 73 -275 45z"/>
<path d="M4764 4431 c-5 -4 -75 -32 -157 -61 -121 -43 -153 -59 -177 -87 -17
-18 -30 -41 -31 -51 0 -9 -2 -25 -4 -35 -5 -28 13 -80 37 -107 45 -50 108 -62
183 -36 169 60 291 109 308 123 102 93 42 254 -97 260 -29 1 -57 -2 -62 -6z"/>
<path d="M105 3612 c-69 -23 -112 -93 -101 -162 9 -55 31 -87 77 -111 34 -17
60 -19 219 -19 161 0 185 2 220 20 44 22 80 80 80 127 -1 52 -35 110 -79 132
-36 19 -57 21 -218 20 -98 -1 -187 -4 -198 -7z"/>
<path d="M4598 3599 c-43 -22 -78 -81 -78 -129 0 -50 35 -107 80 -130 35 -18
59 -20 220 -20 159 0 185 2 219 19 104 53 107 197 6 256 -40 24 -48 25 -226
25 -163 -1 -188 -3 -221 -21z"/>
<path d="M430 2860 c-171 -64 -214 -82 -234 -99 -50 -43 -65 -140 -29 -189 11
-15 35 -38 54 -50 28 -20 42 -23 84 -18 59 6 340 108 368 133 50 46 65 122 36
180 -46 91 -120 102 -279 43z"/>
<path d="M4470 2880 c-85 -45 -101 -167 -31 -234 24 -23 269 -121 354 -141 42
-11 94 3 131 36 31 26 40 45 52 103 5 25 -27 96 -53 119 -29 25 -341 137 -383
136 -19 0 -51 -8 -70 -19z"/>
</g>
</svg>
